<svg width="239" height="239" viewBox="0 0 239 239" fill="none" xmlns="http://www.w3.org/2000/svg">
<circle cx="119.308" cy="119.307" r="77.0537" stroke="#EFABFE" stroke-width="18.7849"/>
<mask id="path-2-inside-1_90_341" fill="white">
<path d="M47.58 91.1227C42.7584 89.228 37.2602 91.5932 35.8989 96.5917C31.82 111.569 31.8345 127.429 36.0288 142.494C41.0652 160.583 51.8544 176.54 66.7648 187.953C81.6753 199.365 99.8963 205.613 118.673 205.751C137.449 205.889 155.76 199.909 170.836 188.717C185.913 177.524 196.935 161.727 202.236 143.714C207.538 125.701 206.83 106.452 200.221 88.8769C193.611 71.3018 181.458 56.3567 165.601 46.3013C152.395 37.9271 137.217 33.3235 121.7 32.894C116.522 32.7506 112.667 37.3291 113.085 42.4927C113.503 47.6564 118.043 51.435 123.214 51.7341C134.653 52.3955 145.792 55.9544 155.554 62.1449C167.971 70.0181 177.486 81.7198 182.661 95.4808C187.836 109.242 188.39 124.314 184.239 138.417C180.088 152.521 171.458 164.89 159.654 173.654C147.849 182.417 133.512 187.099 118.81 186.991C104.109 186.883 89.8421 181.991 78.1675 173.055C66.4929 164.119 58.0452 151.625 54.1018 137.462C51.0011 126.326 50.8178 114.634 53.4947 103.493C54.7051 98.456 52.4017 93.0173 47.58 91.1227Z"/>
</mask>
<path d="M47.58 91.1227C42.7584 89.228 37.2602 91.5932 35.8989 96.5917C31.82 111.569 31.8345 127.429 36.0288 142.494C41.0652 160.583 51.8544 176.54 66.7648 187.953C81.6753 199.365 99.8963 205.613 118.673 205.751C137.449 205.889 155.76 199.909 170.836 188.717C185.913 177.524 196.935 161.727 202.236 143.714C207.538 125.701 206.83 106.452 200.221 88.8769C193.611 71.3018 181.458 56.3567 165.601 46.3013C152.395 37.9271 137.217 33.3235 121.7 32.894C116.522 32.7506 112.667 37.3291 113.085 42.4927C113.503 47.6564 118.043 51.435 123.214 51.7341C134.653 52.3955 145.792 55.9544 155.554 62.1449C167.971 70.0181 177.486 81.7198 182.661 95.4808C187.836 109.242 188.39 124.314 184.239 138.417C180.088 152.521 171.458 164.89 159.654 173.654C147.849 182.417 133.512 187.099 118.81 186.991C104.109 186.883 89.8421 181.991 78.1675 173.055C66.4929 164.119 58.0452 151.625 54.1018 137.462C51.0011 126.326 50.8178 114.634 53.4947 103.493C54.7051 98.456 52.4017 93.0173 47.58 91.1227Z" fill="url(#paint0_linear_90_341)" stroke="black" stroke-width="2" mask="url(#path-2-inside-1_90_341)"/>
<circle cx="119.212" cy="119.307" r="36.6821" stroke="#E9C08F" stroke-width="18.7849"/>
<mask id="path-4-inside-2_90_341" fill="white">
<path d="M126.065 155.352C127.033 160.444 132.005 163.873 136.796 161.895C144.853 158.568 151.865 152.996 156.942 145.753C163.829 135.927 166.611 123.802 164.697 111.956C162.782 100.11 156.322 89.4791 146.69 82.323C139.59 77.0479 131.18 73.9681 122.485 73.3489C117.315 72.9807 113.676 77.8018 114.361 82.939C115.047 88.0763 119.866 91.5212 124.933 92.6071C128.722 93.4189 132.33 95.0351 135.497 97.3885C141.206 101.63 145.034 107.93 146.169 114.951C147.303 121.971 145.655 129.157 141.573 134.98C139.308 138.212 136.393 140.882 133.053 142.846C128.585 145.473 125.097 150.26 126.065 155.352Z"/>
</mask>
<path d="M126.065 155.352C127.033 160.444 132.005 163.873 136.796 161.895C144.853 158.568 151.865 152.996 156.942 145.753C163.829 135.927 166.611 123.802 164.697 111.956C162.782 100.11 156.322 89.4791 146.69 82.323C139.59 77.0479 131.18 73.9681 122.485 73.3489C117.315 72.9807 113.676 77.8018 114.361 82.939C115.047 88.0763 119.866 91.5212 124.933 92.6071C128.722 93.4189 132.33 95.0351 135.497 97.3885C141.206 101.63 145.034 107.93 146.169 114.951C147.303 121.971 145.655 129.157 141.573 134.98C139.308 138.212 136.393 140.882 133.053 142.846C128.585 145.473 125.097 150.26 126.065 155.352Z" fill="url(#paint1_linear_90_341)" stroke="black" stroke-width="2" mask="url(#path-4-inside-2_90_341)"/>
<circle cx="119.307" cy="119.307" r="56.9262" stroke="#EFE1B7" stroke-width="18.7849"/>
<mask id="path-6-inside-3_90_341" fill="white">
<path d="M176.252 121.558C181.4 121.761 185.807 117.735 185.287 112.609C184.642 106.261 183.084 100.024 180.646 94.093C177.022 85.2772 171.54 77.3462 164.575 70.8402C157.609 64.3342 149.322 59.4062 140.28 56.3919C134.197 54.364 127.867 53.2343 121.491 53.0242C116.341 52.8545 112.625 57.5256 113.179 62.6482C113.733 67.7709 118.364 71.3788 123.496 71.8317C127.189 72.1576 130.842 72.9142 134.379 74.0933C140.878 76.2595 146.833 79.801 151.838 84.4765C156.844 89.152 160.784 94.8516 163.388 101.187C164.805 104.636 165.809 108.228 166.386 111.89C167.188 116.98 171.103 121.354 176.252 121.558Z"/>
</mask>
<path d="M176.252 121.558C181.4 121.761 185.807 117.735 185.287 112.609C184.642 106.261 183.084 100.024 180.646 94.093C177.022 85.2772 171.54 77.3462 164.575 70.8402C157.609 64.3342 149.322 59.4062 140.28 56.3919C134.197 54.364 127.867 53.2343 121.491 53.0242C116.341 52.8545 112.625 57.5256 113.179 62.6482C113.733 67.7709 118.364 71.3788 123.496 71.8317C127.189 72.1576 130.842 72.9142 134.379 74.0933C140.878 76.2595 146.833 79.801 151.838 84.4765C156.844 89.152 160.784 94.8516 163.388 101.187C164.805 104.636 165.809 108.228 166.386 111.89C167.188 116.98 171.103 121.354 176.252 121.558Z" fill="#FDD219" stroke="black" stroke-width="2" mask="url(#path-6-inside-3_90_341)"/>
<path d="M128.71 81.4612C128.8 81.4217 128.876 81.3568 128.929 81.2746C128.982 81.1923 129.01 81.0964 129.009 80.9985C129.008 80.9007 128.978 80.8053 128.923 80.7242C128.868 80.6431 128.791 80.5798 128.701 80.5422L124.415 78.5902C124.285 78.5308 124.144 78.5 124 78.5C123.857 78.5 123.716 78.5308 123.585 78.5902L119.3 80.5402C119.211 80.5792 119.136 80.6432 119.082 80.7246C119.029 80.8059 119.001 80.901 119.001 80.9982C119.001 81.0954 119.029 81.1904 119.082 81.2718C119.136 81.3531 119.211 81.4172 119.3 81.4562L123.585 83.4102C123.716 83.4696 123.857 83.5004 124 83.5004C124.144 83.5004 124.285 83.4696 124.415 83.4102L128.71 81.4612Z" stroke="black" stroke-width="0.5" stroke-linecap="round" stroke-linejoin="round"/>
<path d="M129 81V84" stroke="black" stroke-width="0.5" stroke-linecap="round" stroke-linejoin="round"/>
<path d="M121 82.25V84C121 84.3978 121.316 84.7794 121.879 85.0607C122.441 85.342 123.204 85.5 124 85.5C124.796 85.5 125.559 85.342 126.121 85.0607C126.684 84.7794 127 84.3978 127 84V82.25" stroke="black" stroke-width="0.5" stroke-linecap="round" stroke-linejoin="round"/>
<path d="M125.875 41.5L121.579 45.796C121.489 45.8863 121.382 45.9579 121.264 46.0068C121.146 46.0557 121.019 46.0809 120.892 46.0809C120.634 46.0809 120.386 45.9785 120.204 45.7962C120.021 45.6139 119.919 45.3665 119.919 45.1086C119.919 44.8507 120.021 44.6034 120.204 44.421L124.5 40.125" stroke="black" stroke-width="0.5" stroke-linecap="round" stroke-linejoin="round"/>
<path d="M127.25 42.8748L129.083 41.0415" stroke="black" stroke-width="0.5" stroke-linecap="round" stroke-linejoin="round"/>
<path d="M128.854 41.2708L127.977 40.3936C127.805 40.2217 127.708 39.9886 127.708 39.7455V39.5878C127.708 39.3447 127.612 39.1116 127.44 38.9397L126.68 38.1803C126.165 37.6648 125.466 37.3752 124.737 37.375H123.125L123.695 37.9447C124.21 38.4604 124.5 39.1597 124.5 39.889V40.5833L125.417 41.5H125.954C126.197 41.5001 126.43 41.5967 126.602 41.7686L127.479 42.6458" stroke="black" stroke-width="0.5" stroke-linecap="round" stroke-linejoin="round"/>
<path d="M123.042 59.75C124.436 59.7859 125.798 59.3318 126.892 58.4667C126.96 58.4156 127.041 58.3845 127.126 58.3769C127.21 58.3692 127.296 58.3853 127.372 58.4234C127.448 58.4615 127.512 58.52 127.557 58.5924C127.601 58.6648 127.625 58.7482 127.625 58.8333V64.3333C127.625 64.4185 127.601 64.5019 127.557 64.5743C127.512 64.6467 127.448 64.7052 127.372 64.7433C127.296 64.7813 127.21 64.7975 127.126 64.7898C127.041 64.7822 126.96 64.7511 126.892 64.7C125.798 63.8349 124.436 63.3808 123.042 63.4167H120.292C120.049 63.4167 119.815 63.3201 119.643 63.1482C119.472 62.9763 119.375 62.7431 119.375 62.5V60.6667C119.375 60.4236 119.472 60.1904 119.643 60.0185C119.815 59.8466 120.049 59.75 120.292 59.75H123.042Z" stroke="black" stroke-width="0.5" stroke-linecap="round" stroke-linejoin="round"/>
<path d="M120.75 63.4165C120.75 64.6065 121.136 65.7645 121.85 66.7165C121.996 66.911 122.213 67.0396 122.454 67.074C122.694 67.1083 122.939 67.0457 123.133 66.8998C123.328 66.754 123.456 66.5368 123.491 66.2961C123.525 66.0555 123.463 65.811 123.317 65.6165C122.841 64.9818 122.583 64.2099 122.583 63.4165" stroke="black" stroke-width="0.5" stroke-linecap="round" stroke-linejoin="round"/>
<path d="M121.667 59.75V63.4167" stroke="black" stroke-width="0.5" stroke-linecap="round" stroke-linejoin="round"/>
<defs>
<linearGradient id="paint0_linear_90_341" x1="50.15" y1="80.962" x2="98.317" y2="23.2669" gradientUnits="userSpaceOnUse">
<stop stop-color="#8C4ECB"/>
<stop offset="0.925072" stop-color="#BF5AD3"/>
</linearGradient>
<linearGradient id="paint1_linear_90_341" x1="138.967" y1="77.6825" x2="99.458" y2="160.932" gradientUnits="userSpaceOnUse">
<stop stop-color="#F59E0C"/>
<stop offset="1" stop-color="#F56F01"/>
</linearGradient>
</defs>
</svg>
